# xmcd
#
# Track frame offsets:
#	150
#	17094
#	38068
#	56299
#	73401
#	95737
#	115329
#	134292
#	157868
#	173960
#	200030
#
# Disc length: 2928 seconds
#
# Revision: 1
# Processed by: cddbd v1.4PL0 Copyright (c) Steve Scherf et al.
# Submitted via: audiograbber 1.80
#
DISCID=990b6e0b
DTITLE=Mocking Shadows - Long Way
DYEAR=1900
DGENRE=
TTITLE0=Never Got Off the Ground
TTITLE1=Long Way
TTITLE2=Stuck In the Middle
TTITLE3=When All is Said and Done
TTITLE4=Never Meant
TTITLE5=I Can't Tell You
TTITLE6=Loose Lips
TTITLE7=Can't See My Baby
TTITLE8=It's All Right
TTITLE9=Anne
TTITLE10=One of These Days
EXTD=
EXTT0=
EXTT1=
EXTT2=
EXTT3=
EXTT4=
EXTT5=
EXTT6=
EXTT7=
EXTT8=
EXTT9=
EXTT10=
PLAYORDER=
